<?xml version="1.0" standalone="no"?>
<!DOCTYPE svg PUBLIC "-//W3C//DTD SVG 20010904//EN"
 "http://www.w3.org/TR/2001/REC-SVG-20010904/DTD/svg10.dtd">
<svg version="1.0" xmlns="http://www.w3.org/2000/svg"
 width="660.000000pt" height="669.000000pt" viewBox="0 0 660.000000 669.000000"
 preserveAspectRatio="xMidYMid meet">

<g transform="translate(0.000000,669.000000) scale(0.100000,-0.100000)"
fill="#000000" stroke="none">
<path d="M0 3345 l0 -3345 3300 0 3300 0 0 3345 0 3345 -3300 0 -3300 0 0
-3345z m3496 2370 c19 -8 32 -10 28 -4 -7 12 74 7 247 -16 130 -17 370 -86
486 -140 17 -8 39 -15 48 -15 11 0 15 -5 11 -16 -3 -8 -2 -12 4 -9 9 5 114
-38 160 -66 8 -5 30 -17 48 -26 17 -9 32 -20 32 -25 0 -4 5 -8 11 -8 6 0 38
-20 70 -45 33 -25 63 -45 67 -45 4 0 24 -15 44 -34 20 -19 41 -36 46 -37 16
-6 149 -128 210 -192 32 -33 68 -71 82 -86 21 -22 41 -46 103 -126 44 -58 110
-152 122 -175 8 -16 28 -48 43 -72 16 -24 41 -65 55 -93 28 -55 117 -254 117
-262 0 -2 -62 -2 -137 1 -115 5 -140 9 -151 24 -7 9 -11 26 -8 37 8 29 -4 65
-22 65 -13 0 -13 -3 2 -19 10 -11 16 -25 14 -32 -2 -6 -19 18 -38 55 -19 37
-43 76 -52 86 -10 11 -18 25 -18 33 0 8 -21 43 -47 79 -27 36 -52 72 -58 80
-44 68 -326 369 -382 408 -12 8 -50 35 -85 59 -35 24 -65 47 -68 50 -3 4 -34
25 -70 46 -36 22 -75 46 -85 52 -89 57 -268 134 -444 193 -333 111 -768 132
-1131 54 -263 -57 -548 -175 -746 -310 -52 -35 -94 -61 -94 -59 0 3 42 39 93
82 162 135 375 263 582 351 75 32 244 88 285 96 14 2 57 11 95 19 162 35 193
39 289 43 55 3 102 7 105 9 10 11 104 4 137 -10z m-371 -455 c262 -28 453 -85
700 -205 134 -65 369 -212 450 -280 40 -34 24 -32 -28 4 -114 77 -320 173
-498 230 -385 124 -823 128 -1202 11 -142 -43 -320 -119 -432 -185 -63 -37
-247 -159 -266 -177 -8 -7 -36 -31 -64 -53 -75 -60 -195 -179 -195 -193 0 -6
6 -12 13 -12 15 0 54 -40 82 -85 15 -23 20 -54 23 -133 l4 -102 -46 -21 c-26
-11 -59 -21 -74 -22 -27 -2 -27 -1 -32 69 -8 115 10 109 -341 109 -273 0 -300
-2 -316 -18 -15 -15 -19 -39 -21 -155 -3 -125 -2 -140 16 -163 l20 -24 334 -5
335 -5 42 -28 c28 -19 50 -44 64 -75 20 -43 22 -65 24 -272 2 -201 0 -231 -18
-283 -23 -68 -40 -87 -99 -111 -78 -31 -506 -47 -703 -26 -150 15 -190 59
-209 225 -14 124 -10 137 49 158 26 9 61 18 77 19 l30 3 3 -65 c2 -36 6 -75 8
-87 11 -49 28 -51 358 -54 l307 -3 27 26 c26 26 26 27 24 174 -1 80 -6 155
-12 165 -5 10 -20 21 -32 24 -12 3 -164 6 -337 8 -315 2 -316 2 -364 27 -62
32 -82 70 -97 181 -15 107 -6 348 14 407 21 61 54 104 96 126 30 17 67 21 236
27 110 4 225 8 255 10 l55 2 -45 6 c-25 3 -43 11 -42 16 10 26 197 215 296
298 178 149 321 242 508 332 322 153 694 221 1023 185z m2405 -1136 c64 -10
103 -37 130 -90 l25 -49 0 -387 c0 -296 -3 -390 -12 -400 -7 -6 -13 -18 -13
-26 0 -17 -40 -75 -47 -68 -3 2 -13 -4 -22 -13 -24 -24 -130 -44 -194 -37 -29
3 -173 8 -322 11 -251 6 -273 8 -315 28 -85 41 -93 93 -87 527 5 365 8 390 61
443 52 51 75 56 332 63 132 3 241 9 244 11 5 5 160 -4 220 -13z m-2392 -42
c67 -48 67 -47 70 -459 3 -353 2 -373 -15 -374 -11 0 -13 -3 -5 -6 17 -7 15
-23 -8 -71 -16 -32 -32 -48 -68 -65 -46 -21 -55 -22 -392 -22 -366 0 -397 3
-438 48 -11 12 -25 40 -31 62 -15 55 -15 726 0 780 21 75 51 103 134 126 17 4
185 7 375 6 344 -2 345 -2 378 -25z m1118 -38 c5 -56 3 -216 -10 -732 -1 -35
-7 -56 -16 -62 -10 -7 -11 -10 -2 -10 42 0 -23 -108 -83 -135 -40 -18 -55 -19
-295 -19 -184 0 -209 1 -245 19 -65 32 -79 74 -83 235 -4 169 1 184 69 204 94
28 89 35 89 -120 0 -74 5 -144 10 -155 10 -18 23 -19 187 -19 150 0 179 2 195
17 17 15 18 41 18 404 0 228 4 398 10 413 9 24 14 26 79 26 l69 0 8 -66z
m1349 -1111 c-4 -43 -11 -79 -16 -81 -5 -2 -9 -17 -9 -32 0 -16 -9 -66 -21
-112 -11 -46 -21 -92 -23 -103 -5 -32 -26 -105 -38 -131 -9 -19 -14 -21 -21
-12 -6 9 -7 7 -3 -6 6 -17 -31 -154 -44 -166 -9 -8 -70 -139 -70 -149 0 -5 -3
-11 -7 -13 -5 -1 -23 -33 -41 -70 -19 -38 -38 -68 -43 -68 -5 0 -9 -7 -9 -15
0 -7 -6 -18 -14 -22 -8 -4 -16 -17 -18 -28 -2 -11 -9 -19 -16 -18 -6 2 -9 -3
-6 -10 2 -7 -2 -21 -11 -32 -8 -11 -47 -62 -86 -114 -40 -52 -81 -105 -93
-117 -12 -12 -51 -53 -87 -90 -84 -88 -137 -136 -224 -205 -90 -71 -203 -149
-215 -149 -6 0 -10 -4 -10 -9 0 -5 -10 -11 -23 -15 -12 -3 -31 -13 -43 -23
-20 -18 -68 -43 -159 -83 -27 -12 -61 -27 -75 -34 -38 -20 -297 -102 -375
-119 -169 -37 -222 -42 -480 -42 -255 1 -263 2 -413 33 -346 74 -620 198 -908
413 -122 91 -138 114 -34 47 219 -141 557 -266 835 -308 136 -21 448 -24 595
-6 329 41 627 143 908 313 109 66 236 158 288 208 11 11 38 36 60 56 43 40
200 204 224 235 8 10 30 38 48 60 17 23 32 47 32 54 0 6 5 8 10 5 6 -3 10 0
10 7 0 7 24 50 54 96 49 75 143 253 173 327 41 102 88 250 114 356 13 57 39
217 39 246 0 2 57 3 126 3 l126 0 -7 -77z m-4319 0 c92 -414 315 -755 695
-1068 244 -200 584 -373 894 -455 419 -110 828 -85 1237 76 90 36 260 120 336
167 54 34 69 42 57 30 -16 -16 -127 -96 -175 -127 -25 -16 -57 -37 -72 -48
-15 -10 -29 -18 -32 -18 -2 0 -31 -15 -65 -34 -52 -30 -109 -57 -256 -121 -68
-29 -257 -85 -355 -104 -364 -71 -689 -47 -1055 79 -702 242 -1288 868 -1435
1535 -11 50 -20 96 -20 103 0 9 31 12 120 12 l120 0 6 -27z m3207 -233 c29
-11 65 -32 80 -48 30 -31 57 -90 57 -125 0 -15 9 -29 26 -38 45 -24 74 -67 74
-109 0 -50 -13 -79 -72 -161 -46 -63 -59 -101 -39 -113 14 -9 94 67 136 128
21 31 42 56 47 56 18 0 -36 -83 -91 -140 -47 -48 -65 -60 -90 -60 -56 0 -53
67 10 190 35 68 37 102 7 132 -26 26 -25 27 -93 -102 -98 -184 -187 -226 -204
-98 l-6 41 -40 -37 c-70 -62 -113 -61 -139 4 -18 45 -15 44 -67 29 -32 -10
-44 -23 -74 -74 -65 -110 -178 -175 -304 -175 -113 0 -151 22 -151 89 0 36 52
93 102 111 l33 12 2 112 c1 101 27 240 58 318 18 46 -86 -29 -127 -92 -15 -22
-17 -22 -17 -6 -1 30 97 122 144 135 89 24 165 3 193 -55 23 -49 4 -102 -53
-152 l-45 -39 59 -6 c100 -9 141 -46 141 -129 0 -39 1 -40 28 -35 59 12 79 25
85 55 4 17 22 47 42 66 29 29 43 36 76 36 41 0 149 -42 149 -59 0 -5 -7 -25
-15 -46 -9 -20 -20 -57 -24 -82 -26 -135 55 -75 149 110 l52 101 -24 10 c-12
5 -69 30 -124 56 -146 68 -197 132 -144 178 43 36 115 41 193 12z"/>
<path d="M5125 4850 c-3 -6 -2 -9 4 -8 5 2 17 -6 25 -17 16 -19 16 -19 8 4
-10 28 -27 38 -37 21z"/>
<path d="M5229 4703 c-13 -16 -12 -17 4 -4 9 7 17 15 17 17 0 8 -8 3 -21 -13z"/>
<path d="M5310 4585 c0 -8 4 -15 10 -15 5 0 7 7 4 15 -4 8 -8 15 -10 15 -2 0
-4 -7 -4 -15z"/>
<path d="M5338 4553 c7 -3 16 -2 19 1 4 3 -2 6 -13 5 -11 0 -14 -3 -6 -6z"/>
<path d="M5360 4535 c0 -5 11 -28 25 -50 13 -22 24 -35 25 -30 0 6 -11 28 -25
50 -13 22 -24 36 -25 30z"/>
<path d="M5366 4467 c3 -10 9 -15 12 -12 3 3 0 11 -7 18 -10 9 -11 8 -5 -6z"/>
<path d="M5170 4426 c0 -2 7 -9 15 -16 13 -11 14 -10 9 4 -5 14 -24 23 -24 12z"/>
<path d="M5261 4313 c-1 -12 4 -25 9 -28 12 -7 12 2 0 30 -8 19 -9 19 -9 -2z"/>
<path d="M1585 3240 c-3 -5 -1 -10 4 -10 6 0 11 5 11 10 0 6 -2 10 -4 10 -3 0
-8 -4 -11 -10z"/>
<path d="M1533 3173 c9 -2 23 -2 30 0 6 3 -1 5 -18 5 -16 0 -22 -2 -12 -5z"/>
<path d="M1600 3159 c0 -5 5 -7 10 -4 6 3 10 8 10 11 0 2 -4 4 -10 4 -5 0 -10
-5 -10 -11z"/>
<path d="M4892 3953 c-48 -10 -53 -47 -50 -374 3 -291 4 -299 25 -320 21 -21
29 -22 293 -25 148 -1 284 1 301 6 58 17 58 16 59 356 0 292 -1 313 -19 335
l-19 24 -284 2 c-155 0 -294 -1 -306 -4z"/>
<path d="M5665 3420 c-3 -5 -1 -10 4 -10 6 0 11 5 11 10 0 6 -2 10 -4 10 -3 0
-8 -4 -11 -10z"/>
<path d="M5448 3083 c7 -3 16 -2 19 1 4 3 -2 6 -13 5 -11 0 -14 -3 -6 -6z"/>
<path d="M2460 3943 c-61 -12 -60 -6 -60 -353 0 -242 3 -320 13 -327 7 -6 137
-13 303 -16 l291 -6 24 25 24 26 -4 306 c-3 298 -4 308 -24 327 -20 19 -36 20
-282 22 -143 0 -271 -1 -285 -4z"/>
<path d="M3065 3220 c-3 -5 -2 -10 4 -10 5 0 13 5 16 10 3 6 2 10 -4 10 -5 0
-13 -4 -16 -10z"/>
<path d="M3136 3162 l-19 -27 24 22 c12 12 21 24 18 27 -2 2 -13 -8 -23 -22z"/>
<path d="M5546 2821 c-4 -7 -5 -15 -2 -18 9 -9 19 4 14 18 -4 11 -6 11 -12 0z"/>
<path d="M5351 2784 c0 -11 3 -14 6 -6 3 7 2 16 -1 19 -3 4 -6 -2 -5 -13z"/>
<path d="M5335 2631 c-3 -5 -1 -12 5 -16 5 -3 10 1 10 9 0 18 -6 21 -15 7z"/>
<path d="M5255 2380 c-3 -5 -1 -10 4 -10 6 0 11 5 11 10 0 6 -2 10 -4 10 -3 0
-8 -4 -11 -10z"/>
<path d="M5180 2301 c0 -6 4 -13 10 -16 6 -3 7 1 4 9 -7 18 -14 21 -14 7z"/>
<path d="M5380 2275 c-7 -9 -8 -15 -2 -15 5 0 12 7 16 15 3 8 4 15 2 15 -2 0
-9 -7 -16 -15z"/>
<path d="M5160 2259 c0 -5 5 -7 10 -4 6 3 10 8 10 11 0 2 -4 4 -10 4 -5 0 -10
-5 -10 -11z"/>
<path d="M5130 1886 c0 -2 7 -9 15 -16 13 -11 14 -10 9 4 -5 14 -24 23 -24 12z"/>
<path d="M4322 2684 c-39 -27 -28 -50 41 -83 57 -27 216 -81 238 -81 18 0 8
47 -20 92 -38 59 -96 88 -177 88 -38 0 -68 -6 -82 -16z"/>
<path d="M3795 2670 c-18 -8 -18 -9 -2 -9 29 -1 30 -26 3 -106 -35 -104 -34
-112 9 -78 41 32 79 86 88 124 12 49 -48 91 -98 69z"/>
<path d="M3799 2403 c-15 -2 -34 -12 -42 -21 -15 -16 -43 -150 -34 -159 4 -3
154 11 223 22 35 6 54 37 54 90 0 52 -37 75 -114 74 -33 -1 -73 -4 -87 -6z"/>
<path d="M4276 2366 c-31 -32 -76 -126 -76 -161 0 -58 128 49 151 126 12 37
11 43 -6 55 -26 19 -30 18 -69 -20z"/>
<path d="M3813 2214 c-122 -14 -177 -36 -213 -81 -30 -38 -24 -84 14 -102 71
-34 242 46 324 153 40 52 44 51 -125 30z"/>
</g>
</svg>
