<?xml version="1.0" standalone="no"?>
<!DOCTYPE svg PUBLIC "-//W3C//DTD SVG 20010904//EN"
 "http://www.w3.org/TR/2001/REC-SVG-20010904/DTD/svg10.dtd">
<svg version="1.0" xmlns="http://www.w3.org/2000/svg"
 width="660.000000pt" height="669.000000pt" viewBox="0 0 660.000000 669.000000"
 preserveAspectRatio="xMidYMid meet">

<g transform="translate(0.000000,669.000000) scale(0.100000,-0.100000)"
fill="#000000" stroke="none">
<path d="M3261 5720 c14 -4 43 -4 65 0 35 7 32 8 -26 8 -46 0 -58 -2 -39 -8z"/>
<path d="M3480 5723 c8 -3 23 -10 34 -15 12 -7 16 -7 12 0 -4 7 10 12 36 15
28 2 18 4 -27 4 -38 1 -63 -1 -55 -4z"/>
<path d="M3168 5713 c6 -2 18 -2 25 0 6 3 1 5 -13 5 -14 0 -19 -2 -12 -5z"/>
<path d="M3640 5710 c20 -13 43 -13 35 0 -3 6 -16 10 -28 10 -18 0 -19 -2 -7
-10z"/>
<path d="M3045 5700 l-30 -8 30 0 c17 0 41 4 55 8 l25 8 -25 0 c-14 0 -38 -4
-55 -8z"/>
<path d="M3713 5703 c9 -2 25 -2 35 0 9 3 1 5 -18 5 -19 0 -27 -2 -17 -5z"/>
<path d="M3778 5693 c7 -3 16 -2 19 1 4 3 -2 6 -13 5 -11 0 -14 -3 -6 -6z"/>
<path d="M2950 5680 c-13 -9 -13 -10 0 -9 8 1 26 5 40 9 l25 8 -25 1 c-14 0
-32 -4 -40 -9z"/>
<path d="M3848 5683 c7 -3 16 -2 19 1 4 3 -2 6 -13 5 -11 0 -14 -3 -6 -6z"/>
<path d="M3888 5673 c7 -3 16 -2 19 1 4 3 -2 6 -13 5 -11 0 -14 -3 -6 -6z"/>
<path d="M2888 5663 c6 -2 18 -2 25 0 6 3 1 5 -13 5 -14 0 -19 -2 -12 -5z"/>
<path d="M3938 5663 c7 -3 16 -2 19 1 4 3 -2 6 -13 5 -11 0 -14 -3 -6 -6z"/>
<path d="M2730 5620 c-18 -12 -2 -12 25 0 13 6 15 9 5 9 -8 0 -22 -4 -30 -9z"/>
<path d="M4085 5620 c27 -12 43 -12 25 0 -8 5 -22 9 -30 9 -10 0 -8 -3 5 -9z"/>
<path d="M2670 5600 c-18 -12 -2 -12 25 0 13 6 15 9 5 9 -8 0 -22 -4 -30 -9z"/>
<path d="M4140 5600 c20 -13 33 -13 25 0 -3 6 -14 10 -23 10 -15 0 -15 -2 -2
-10z"/>
<path d="M4180 5586 c0 -2 9 -6 20 -9 11 -3 18 -1 14 4 -5 9 -34 13 -34 5z"/>
<path d="M2575 5560 c-3 -6 1 -7 9 -4 18 7 21 14 7 14 -6 0 -13 -4 -16 -10z"/>
<path d="M4254 5555 c11 -8 29 -14 40 -14 20 1 21 1 1 6 -11 3 -24 9 -29 14
-6 5 -15 9 -20 9 -6 0 -2 -7 8 -15z"/>
<path d="M2526 5541 c-4 -5 3 -7 14 -4 23 6 26 13 6 13 -8 0 -17 -4 -20 -9z"/>
<path d="M3028 5533 c18 -2 45 -2 60 0 15 2 0 4 -33 4 -33 0 -45 -2 -27 -4z"/>
<path d="M3128 5533 c7 -3 16 -2 19 1 4 3 -2 6 -13 5 -11 0 -14 -3 -6 -6z"/>
<path d="M3298 5533 c23 -2 61 -2 85 0 23 2 4 4 -43 4 -47 0 -66 -2 -42 -4z"/>
<path d="M2933 5523 c9 -2 25 -2 35 0 9 3 1 5 -18 5 -19 0 -27 -2 -17 -5z"/>
<path d="M3453 5523 c9 -2 23 -2 30 0 6 3 -1 5 -18 5 -16 0 -22 -2 -12 -5z"/>
<path d="M4314 5518 c-4 -6 -3 -8 3 -5 6 4 27 0 47 -8 44 -19 48 -12 4 9 -37
19 -45 20 -54 4z"/>
<path d="M2868 5513 c6 -2 18 -2 25 0 6 3 1 5 -13 5 -14 0 -19 -2 -12 -5z"/>
<path d="M3533 5513 c9 -2 23 -2 30 0 6 3 -1 5 -18 5 -16 0 -22 -2 -12 -5z"/>
<path d="M2440 5499 c0 -5 5 -7 10 -4 6 3 10 8 10 11 0 2 -4 4 -10 4 -5 0 -10
-5 -10 -11z"/>
<path d="M3620 5500 c34 -11 60 -11 35 0 -11 5 -29 8 -40 8 -16 0 -15 -2 5 -8z"/>
<path d="M3698 5483 c7 -3 16 -2 19 1 4 3 -2 6 -13 5 -11 0 -14 -3 -6 -6z"/>
<path d="M4424 5475 c11 -8 27 -15 35 -15 9 0 3 7 -13 15 -36 19 -47 19 -22 0z"/>
<path d="M2658 5473 c6 -2 18 -2 25 0 6 3 1 5 -13 5 -14 0 -19 -2 -12 -5z"/>
<path d="M3745 5472 c29 -13 93 -24 75 -13 -8 5 -33 12 -55 15 -27 4 -33 3
-20 -2z"/>
<path d="M2365 5460 c-3 -6 1 -7 9 -4 18 7 21 14 7 14 -6 0 -13 -4 -16 -10z"/>
<path d="M2610 5460 c-8 -5 -10 -10 -5 -10 6 0 17 5 25 10 8 5 11 10 5 10 -5
0 -17 -5 -25 -10z"/>
<path d="M3870 5435 c46 -18 61 -18 30 0 -14 8 -34 14 -45 14 -13 0 -8 -5 15
-14z"/>
<path d="M4480 5446 c0 -2 7 -7 16 -10 8 -3 12 -2 9 4 -6 10 -25 14 -25 6z"/>
<path d="M2528 5433 c7 -3 16 -2 19 1 4 3 -2 6 -13 5 -11 0 -14 -3 -6 -6z"/>
<path d="M3998 5393 c7 -3 16 -2 19 1 4 3 -2 6 -13 5 -11 0 -14 -3 -6 -6z"/>
<path d="M2363 5380 c-13 -5 -23 -11 -23 -14 0 -7 40 6 46 15 6 10 6 10 -23
-1z"/>
<path d="M4035 5380 c3 -4 14 -10 25 -13 11 -3 18 -2 15 3 -3 4 -14 10 -25 13
-11 3 -18 2 -15 -3z"/>
<path d="M4590 5387 c0 -11 114 -87 124 -83 6 2 4 5 -6 5 -9 1 -18 5 -20 9 -3
9 -98 75 -98 69z"/>
<path d="M4150 5330 c19 -11 40 -19 45 -19 6 0 -6 8 -25 19 -19 11 -39 19 -45
19 -5 0 6 -8 25 -19z"/>
<path d="M4210 5300 c0 -6 7 -10 15 -10 8 0 15 2 15 4 0 2 -7 6 -15 10 -8 3
-15 1 -15 -4z"/>
<path d="M4250 5286 c0 -3 14 -12 30 -21 17 -9 30 -13 30 -11 0 3 -13 12 -30
21 -16 9 -30 13 -30 11z"/>
<path d="M4740 5275 c7 -8 17 -15 22 -15 5 0 3 7 -6 15 -8 8 -18 15 -22 15 -3
0 -1 -7 6 -15z"/>
<path d="M4780 5240 c0 -5 5 -10 10 -10 6 0 10 5 10 10 0 6 -4 10 -10 10 -5 0
-10 -4 -10 -10z"/>
<path d="M2558 5233 c6 -2 18 -2 25 0 6 3 1 5 -13 5 -14 0 -19 -2 -12 -5z"/>
<path d="M4330 5230 c0 -5 4 -10 9 -10 5 0 18 -3 28 -6 16 -6 16 -5 -2 9 -23
19 -35 21 -35 7z"/>
<path d="M4834 5202 c16 -17 32 -30 34 -27 5 4 -12 22 -43 45 -11 8 -7 0 9
-18z"/>
<path d="M4439 5171 c13 -12 28 -21 34 -21 12 0 11 0 -28 24 l-30 17 24 -20z"/>
<path d="M4914 5132 c22 -23 42 -40 44 -37 5 4 -32 41 -63 65 -11 8 -2 -5 19
-28z"/>
<path d="M2225 5140 c-3 -5 -1 -10 4 -10 6 0 11 5 11 10 0 6 -2 10 -4 10 -3 0
-8 -4 -11 -10z"/>
<path d="M4970 5082 c0 -10 58 -67 63 -61 2 2 -11 19 -29 37 -19 18 -34 29
-34 24z"/>
<path d="M4590 5060 c0 -6 4 -10 9 -10 4 0 22 -13 39 -30 34 -32 48 -39 35
-16 -11 20 -83 68 -83 56z"/>
<path d="M5062 4980 c12 -16 23 -30 25 -30 9 0 1 19 -16 38 -28 33 -35 26 -9
-8z"/>
<path d="M5120 4921 c0 -6 4 -13 10 -16 6 -3 7 1 4 9 -7 18 -14 21 -14 7z"/>
<path d="M5150 4886 c0 -4 9 -19 20 -33 11 -14 20 -21 20 -16 0 6 -9 20 -20
33 -11 13 -20 20 -20 16z"/>
<path d="M5143 4836 c6 -13 21 -30 32 -36 19 -12 19 -12 4 6 -9 10 -19 27 -22
37 -4 9 -11 17 -16 17 -5 0 -4 -10 2 -24z"/>
<path d="M5200 4821 c0 -6 4 -13 10 -16 6 -3 7 1 4 9 -7 18 -14 21 -14 7z"/>
<path d="M4885 4780 c33 -40 45 -52 45 -43 0 5 -15 22 -32 39 -26 23 -29 24
-13 4z"/>
<path d="M5220 4786 c0 -2 7 -9 15 -16 13 -11 14 -10 9 4 -5 14 -24 23 -24 12z"/>
<path d="M5206 4767 c3 -10 9 -15 12 -12 3 3 0 11 -7 18 -10 9 -11 8 -5 -6z"/>
<path d="M5259 4732 c6 -12 16 -24 22 -28 8 -4 8 -1 0 14 -6 12 -16 24 -22 28
-8 4 -8 1 0 -14z"/>
<path d="M5225 4700 c-3 -5 -1 -10 4 -10 6 0 11 5 11 10 0 6 -2 10 -4 10 -3 0
-8 -4 -11 -10z"/>
<path d="M4970 4678 c0 -10 40 -51 45 -46 3 2 -6 15 -20 28 -14 13 -25 21 -25
18z"/>
<path d="M5311 4658 c17 -33 72 -118 76 -118 5 0 -29 64 -37 70 -4 3 -15 20
-24 38 -9 17 -19 32 -22 32 -2 0 1 -10 7 -22z"/>
<path d="M5310 4595 c0 -24 18 -45 39 -45 13 0 13 2 -1 13 -8 6 -20 21 -26 32
-11 20 -11 20 -12 0z"/>
<path d="M5036 4585 c4 -8 11 -15 16 -15 6 0 5 6 -2 15 -7 8 -14 15 -16 15 -2
0 -1 -7 2 -15z"/>
<path d="M5071 4540 c14 -27 39 -56 39 -43 -1 4 -12 22 -26 38 -22 26 -24 27
-13 5z"/>
<path d="M5360 4533 c0 -11 49 -90 50 -80 0 11 -39 87 -45 87 -3 0 -5 -3 -5
-7z"/>
<path d="M5360 4485 c0 -5 5 -17 10 -25 5 -8 10 -10 10 -5 0 6 -5 17 -10 25
-5 8 -10 11 -10 5z"/>
<path d="M5130 4444 c0 -13 18 -39 24 -34 2 3 -2 14 -10 24 -8 11 -14 16 -14
10z"/>
<path d="M5182 4410 c7 -10 14 -18 15 -16 6 6 -9 36 -18 36 -5 0 -4 -9 3 -20z"/>
<path d="M5450 4409 c0 -4 16 -40 35 -80 19 -41 34 -67 34 -59 0 15 -68 151
-69 139z"/>
<path d="M5160 4387 c0 -9 4 -17 9 -17 5 0 11 -10 14 -22 4 -12 9 -19 13 -15
10 10 34 -12 34 -31 0 -13 -3 -12 -15 4 -14 18 -14 17 -3 -9 9 -22 13 -25 20
-13 5 8 6 27 2 41 -5 20 -11 25 -25 22 -11 -3 -19 0 -19 6 0 7 -7 21 -15 31
-13 17 -15 18 -15 3z"/>
<path d="M820 4380 c-9 -6 -10 -10 -3 -10 6 0 15 5 18 10 8 12 4 12 -15 0z"/>
<path d="M5260 4310 c0 -11 4 -20 9 -20 5 0 7 9 4 20 -3 11 -7 20 -9 20 -2 0
-4 -9 -4 -20z"/>
<path d="M5260 4260 c0 -5 5 -10 11 -10 5 0 7 5 4 10 -3 6 -8 10 -11 10 -2 0
-4 -4 -4 -10z"/>
<path d="M5348 4263 c6 -2 18 -2 25 0 6 3 1 5 -13 5 -14 0 -19 -2 -12 -5z"/>
<path d="M5249 4227 c4 -5 32 -7 62 -5 l54 3 -62 5 c-34 3 -58 1 -54 -3z"/>
<path d="M5404 4218 c-3 -4 23 -8 57 -8 34 0 60 2 58 4 -9 9 -110 12 -115 4z"/>
<path d="M2335 4090 c-3 -6 1 -7 9 -4 18 7 21 14 7 14 -6 0 -13 -4 -16 -10z"/>
<path d="M4706 4043 c-6 -14 -5 -15 5 -6 7 7 10 15 7 18 -3 3 -9 -2 -12 -12z"/>
<path d="M2246 3995 c-9 -26 -7 -32 5 -12 6 10 9 21 6 23 -2 3 -7 -2 -11 -11z"/>
<path d="M4251 3664 c0 -11 3 -14 6 -6 3 7 2 16 -1 19 -3 4 -6 -2 -5 -13z"/>
<path d="M4250 3490 c-2 -74 -2 -153 -1 -176 2 -27 -3 -47 -13 -57 -11 -11
-12 -17 -4 -19 15 -5 -6 -63 -36 -97 -15 -16 -16 -22 -6 -19 8 2 26 24 40 49
23 41 25 54 28 214 2 94 2 186 -1 205 -2 19 -5 -26 -7 -100z"/>
<path d="M1571 3364 c0 -11 3 -14 6 -6 3 7 2 16 -1 19 -3 4 -6 -2 -5 -13z"/>
<path d="M1556 3293 c-6 -14 -5 -15 5 -6 7 7 10 15 7 18 -3 3 -9 -2 -12 -12z"/>
<path d="M887 3259 c7 -7 15 -10 18 -7 3 3 -2 9 -12 12 -14 6 -15 5 -6 -5z"/>
<path d="M1418 3243 c12 -2 32 -2 45 0 12 2 2 4 -23 4 -25 0 -35 -2 -22 -4z"/>
<path d="M1585 3240 c-3 -5 -1 -10 4 -10 6 0 11 5 11 10 0 6 -2 10 -4 10 -3 0
-8 -4 -11 -10z"/>
<path d="M3078 3236 c-20 -15 -23 -26 -8 -26 5 0 14 9 20 20 12 23 11 24 -12
6z"/>
<path d="M5620 3199 c0 -5 5 -7 10 -4 6 3 10 8 10 11 0 2 -4 4 -10 4 -5 0 -10
-5 -10 -11z"/>
<path d="M3172 3160 c-14 -29 -15 -37 -5 -28 16 13 36 58 30 65 -3 2 -14 -14
-25 -37z"/>
<path d="M5488 3193 c6 -2 18 -2 25 0 6 3 1 5 -13 5 -14 0 -19 -2 -12 -5z"/>
<path d="M3146 3173 c-6 -14 -5 -15 5 -6 7 7 10 15 7 18 -3 3 -9 -2 -12 -12z"/>
<path d="M5661 3174 c0 -11 3 -14 6 -6 3 7 2 16 -1 19 -3 4 -6 -2 -5 -13z"/>
<path d="M1533 3173 c9 -2 23 -2 30 0 6 3 -1 5 -18 5 -16 0 -22 -2 -12 -5z"/>
<path d="M1600 3159 c0 -5 5 -7 10 -4 6 3 10 8 10 11 0 2 -4 4 -10 4 -5 0 -10
-5 -10 -11z"/>
<path d="M3078 3133 c7 -3 16 -2 19 1 4 3 -2 6 -13 5 -11 0 -14 -3 -6 -6z"/>
<path d="M2300 3106 c0 -2 7 -7 16 -10 8 -3 12 -2 9 4 -6 10 -25 14 -25 6z"/>
<path d="M5448 3083 c7 -3 16 -2 19 1 4 3 -2 6 -13 5 -11 0 -14 -3 -6 -6z"/>
<path d="M1518 3053 c6 -2 18 -2 25 0 6 3 1 5 -13 5 -14 0 -19 -2 -12 -5z"/>
<path d="M5578 3013 c6 -2 18 -2 25 0 6 3 1 5 -13 5 -14 0 -19 -2 -12 -5z"/>
<path d="M5351 2984 c0 -11 3 -14 6 -6 3 7 2 16 -1 19 -3 4 -6 -2 -5 -13z"/>
<path d="M5338 2920 c-11 -50 -28 -173 -25 -177 7 -7 39 162 35 182 -4 17 -6
17 -10 -5z"/>
<path d="M5601 2914 c0 -11 3 -14 6 -6 3 7 2 16 -1 19 -3 4 -6 -2 -5 -13z"/>
<path d="M5552 2830 c-14 -23 -16 -40 -3 -40 7 0 23 51 17 57 -1 1 -7 -7 -14
-17z"/>
<path d="M5582 2820 c0 -14 2 -19 5 -12 2 6 2 18 0 25 -3 6 -5 1 -5 -13z"/>
<path d="M5351 2784 c0 -11 3 -14 6 -6 3 7 2 16 -1 19 -3 4 -6 -2 -5 -13z"/>
<path d="M5351 2734 c0 -11 3 -14 6 -6 3 7 2 16 -1 19 -3 4 -6 -2 -5 -13z"/>
<path d="M5302 2710 c0 -14 2 -19 5 -12 2 6 2 18 0 25 -3 6 -5 1 -5 -13z"/>
<path d="M5561 2714 c0 -11 3 -14 6 -6 3 7 2 16 -1 19 -3 4 -6 -2 -5 -13z"/>
<path d="M4490 2703 c8 -3 24 -10 35 -15 20 -9 20 -9 1 6 -11 9 -27 16 -35 15
-14 0 -14 -1 -1 -6z"/>
<path d="M4322 2684 c-21 -15 -33 -62 -11 -49 5 4 8 12 6 18 -2 7 10 20 27 29
17 9 24 17 16 18 -9 0 -26 -7 -38 -16z"/>
<path d="M4393 2693 c9 -2 23 -2 30 0 6 3 -1 5 -18 5 -16 0 -22 -2 -12 -5z"/>
<path d="M4450 2691 c8 -6 23 -11 32 -11 9 0 22 -8 27 -17 6 -10 11 -14 11 -9
0 6 6 2 13 -8 8 -11 20 -17 28 -14 18 6 -55 54 -96 63 -23 5 -26 4 -15 -4z"/>
<path d="M3796 2671 c-19 -7 -19 -8 2 -13 12 -4 22 -14 23 -25 0 -16 1 -16 9
2 19 43 9 53 -34 36z"/>
<path d="M3900 2676 c0 -3 9 -10 20 -16 11 -6 20 -8 20 -6 0 3 -9 10 -20 16
-11 6 -20 8 -20 6z"/>
<path d="M4274 2665 c-3 -8 -4 -20 -2 -27 3 -7 7 -1 10 15 6 29 1 36 -8 12z"/>
<path d="M3873 2656 c4 -6 7 -18 7 -28 0 -10 5 -18 10 -18 15 0 12 16 -7 37
-10 10 -15 14 -10 9z"/>
<path d="M4575 2650 c10 -11 20 -20 23 -20 3 0 -3 9 -13 20 -10 11 -20 20 -23
20 -3 0 3 -9 13 -20z"/>
<path d="M3675 2642 c-11 -10 -29 -29 -40 -42 -11 -14 0 -7 23 15 38 35 47 46
40 45 -2 -1 -12 -9 -23 -18z"/>
<path d="M3730 2648 c-22 -8 -23 -11 -9 -21 11 -8 14 -18 8 -32 -4 -11 -8 -29
-8 -40 0 -11 9 7 19 40 11 32 18 60 17 61 -1 1 -13 -3 -27 -8z"/>
<path d="M3946 2627 c3 -10 9 -15 12 -12 3 3 0 11 -7 18 -10 9 -11 8 -5 -6z"/>
<path d="M5335 2631 c-3 -5 -1 -12 5 -16 5 -3 10 1 10 9 0 18 -6 21 -15 7z"/>
<path d="M5536 2623 c-6 -14 -5 -15 5 -6 7 7 10 15 7 18 -3 3 -9 -2 -12 -12z"/>
<path d="M4320 2626 c0 -3 9 -10 20 -16 11 -6 20 -8 20 -6 0 3 -9 10 -20 16
-11 6 -20 8 -20 6z"/>
<path d="M3665 2600 c-16 -17 -16 -20 -3 -15 9 4 19 13 22 21 7 19 2 18 -19
-6z"/>
<path d="M4280 2613 c0 -27 89 -88 194 -134 43 -18 84 -42 91 -52 12 -17 13
-17 18 2 4 15 -4 23 -42 37 -88 33 -201 94 -231 126 -17 17 -30 27 -30 21z"/>
<path d="M4571 2603 c15 -17 20 -63 7 -63 -4 0 -8 -4 -8 -10 0 -5 9 -10 20
-10 13 0 20 7 20 20 0 27 -27 80 -41 80 -7 0 -6 -6 2 -17z"/>
<path d="M3801 2574 c-18 -49 -8 -53 12 -4 8 22 12 40 8 40 -4 0 -13 -16 -20
-36z"/>
<path d="M3881 2591 c-1 -8 -17 -34 -38 -59 -32 -39 -37 -42 -46 -26 -10 17
-11 17 -18 -1 -4 -11 -8 -28 -8 -38 -1 -15 4 -14 34 10 42 33 88 99 81 116 -3
8 -5 7 -5 -2z"/>
<path d="M3951 2551 c-7 -26 -28 -54 -58 -80 -44 -39 -45 -41 -19 -41 15 0 26
6 26 13 0 8 9 22 20 32 20 18 57 102 48 110 -3 3 -10 -13 -17 -34z"/>
<path d="M4401 2587 c8 -10 151 -58 156 -53 2 2 -26 14 -64 26 -37 13 -75 25
-83 28 -8 3 -12 2 -9 -1z"/>
<path d="M5256 2566 c-3 -13 -9 -32 -12 -43 -5 -12 -4 -15 3 -8 11 10 28 75
20 75 -3 0 -8 -11 -11 -24z"/>
<path d="M3706 2508 c-3 -13 -5 -32 -5 -43 1 -11 5 -2 10 19 10 42 6 62 -5 24z"/>
<path d="M4630 2516 c0 -7 12 -19 26 -27 45 -24 74 -67 74 -109 0 -50 -13 -79
-72 -161 -72 -100 -64 -148 13 -80 49 43 116 131 100 131 -6 0 -11 -4 -11 -9
0 -15 -91 -111 -106 -111 -18 0 -18 14 1 30 8 7 15 18 15 25 0 6 11 25 25 41
33 38 53 109 44 154 -5 23 -25 50 -58 81 -28 26 -51 41 -51 35z"/>
<path d="M3687 2396 c-4 -27 -6 -72 -6 -100 1 -38 4 -29 10 39 10 98 7 140 -4
61z"/>
<path d="M5207 2433 c-4 -3 -7 -11 -7 -17 0 -6 5 -5 12 2 6 6 9 14 7 17 -3 3
-9 2 -12 -2z"/>
<path d="M4273 2423 c9 -2 25 -2 35 0 9 3 1 5 -18 5 -19 0 -27 -2 -17 -5z"/>
<path d="M4601 2411 c-8 -14 -6 -17 12 -17 16 1 25 -8 34 -34 12 -34 12 -34
12 -7 2 54 -39 94 -58 58z"/>
<path d="M4208 2401 c-28 -23 -87 -126 -67 -119 7 2 17 19 21 36 5 18 24 48
44 67 38 39 40 45 2 16z"/>
<path d="M3799 2403 c-15 -2 -34 -12 -43 -22 -21 -23 -34 -111 -16 -111 7 0
10 6 7 14 -9 23 13 81 36 96 26 16 171 25 162 9 -4 -6 0 -9 11 -7 21 4 37 -43
28 -87 -4 -23 -3 -26 5 -15 6 8 11 32 11 52 0 55 -35 78 -114 77 -33 -1 -73
-4 -87 -6z"/>
<path d="M4276 2366 c-31 -32 -76 -126 -76 -161 0 -9 9 -15 22 -15 21 0 21 1
3 13 -17 13 -17 16 9 73 33 72 52 94 83 94 41 0 23 -62 -41 -141 -12 -14 -2
-5 21 19 24 24 48 62 55 84 11 36 10 42 -7 54 -26 19 -30 18 -69 -20z"/>
<path d="M4036 2375 c4 -11 9 -41 12 -67 3 -41 7 -48 25 -48 14 0 18 3 10 8
-7 4 -16 26 -21 48 -5 22 -15 49 -21 60 -12 18 -12 18 -5 -1z"/>
<path d="M4401 2387 c2 -1 13 -9 24 -17 19 -14 19 -14 6 3 -7 9 -18 17 -24 17
-6 0 -8 -1 -6 -3z"/>
<path d="M5255 2380 c-3 -5 -1 -10 4 -10 6 0 11 5 11 10 0 6 -2 10 -4 10 -3 0
-8 -4 -11 -10z"/>
<path d="M4565 2350 c-9 -16 -13 -30 -11 -30 3 0 12 14 21 30 9 17 13 30 11
30 -3 0 -12 -13 -21 -30z"/>
<path d="M5172 2345 c-17 -37 -14 -45 4 -12 9 16 14 31 11 33 -2 2 -9 -7 -15
-21z"/>
<path d="M4405 2291 c-9 -28 -14 -59 -12 -68 4 -15 5 -15 6 2 1 11 8 40 17 64
8 24 13 46 10 48 -2 2 -12 -18 -21 -46z"/>
<path d="M4510 2300 c-6 -11 -8 -20 -6 -20 3 0 10 9 16 20 6 11 8 20 6 20 -3
0 -10 -9 -16 -20z"/>
<path d="M4608 2254 c-17 -37 -33 -88 -36 -114 -4 -40 -1 -50 18 -63 12 -8 29
-13 36 -10 23 9 16 23 -11 23 -45 0 -43 83 4 165 21 37 32 65 25 65 -3 0 -19
-30 -36 -66z"/>
<path d="M5180 2301 c0 -6 4 -13 10 -16 6 -3 7 1 4 9 -7 18 -14 21 -14 7z"/>
<path d="M5145 2289 c-4 -6 -5 -12 -2 -15 2 -3 7 2 10 11 7 17 1 20 -8 4z"/>
<path d="M4526 2273 c-6 -14 -5 -15 5 -6 7 7 10 15 7 18 -3 3 -9 -2 -12 -12z"/>
<path d="M5380 2275 c-7 -9 -10 -18 -7 -21 3 -3 10 4 17 15 13 25 8 27 -10 6z"/>
<path d="M5160 2259 c0 -5 5 -7 10 -4 6 3 10 8 10 11 0 2 -4 4 -10 4 -5 0 -10
-5 -10 -11z"/>
<path d="M3720 2243 c0 -19 5 -23 28 -22 16 0 21 3 12 6 -8 4 -20 13 -27 22
-11 14 -12 13 -13 -6z"/>
<path d="M4095 2250 c-18 -7 -16 -9 12 -15 22 -5 33 -14 37 -31 12 -47 79 -57
124 -19 32 27 62 25 62 -4 0 -23 36 -61 58 -61 10 0 33 14 52 31 25 22 27 25
6 10 -56 -41 -95 -22 -105 51 l-6 41 -40 -37 c-68 -62 -113 -60 -139 4 -16 41
-25 45 -61 30z"/>
<path d="M5120 2240 c-6 -11 -8 -20 -6 -20 3 0 10 9 16 20 6 11 8 20 6 20 -3
0 -10 -9 -16 -20z"/>
<path d="M4492 2220 c-13 -16 -19 -30 -14 -30 4 0 16 14 25 30 10 17 16 30 14
30 -2 0 -13 -13 -25 -30z"/>
<path d="M3680 2226 c0 -9 5 -16 10 -16 6 0 10 4 10 9 0 6 -4 13 -10 16 -5 3
-10 -1 -10 -9z"/>
<path d="M3828 2233 c6 -2 18 -2 25 0 6 3 1 5 -13 5 -14 0 -19 -2 -12 -5z"/>
<path d="M4015 2176 c-65 -111 -177 -176 -306 -176 -40 0 -85 7 -107 16 -36
15 -37 15 -17 -4 11 -10 27 -19 35 -20 8 0 32 -5 52 -10 47 -12 114 0 187 34
80 36 131 88 205 212 4 6 3 12 -2 12 -5 0 -26 -29 -47 -64z"/>
<path d="M3819 2215 c-127 -15 -146 -21 -146 -40 0 -9 4 -11 11 -6 36 28 228
52 241 31 4 -7 -11 -31 -36 -58 -36 -38 -25 -36 16 3 20 19 55 68 55 76 0 11
-5 10 -141 -6z"/>
<path d="M5096 2193 c-6 -14 -5 -15 5 -6 7 7 10 15 7 18 -3 3 -9 -2 -12 -12z"/>
<path d="M4380 2194 c0 -17 18 -36 30 -32 7 2 4 10 -9 22 -12 11 -21 15 -21
10z"/>
<path d="M3583 2158 c-15 -20 -25 -38 -20 -38 3 0 12 11 21 25 17 26 16 35 -1
13z"/>
<path d="M3613 2148 c-26 -30 -40 -53 -25 -44 12 7 56 66 49 66 -2 0 -13 -10
-24 -22z"/>
<path d="M5076 2153 c-6 -14 -5 -15 5 -6 7 7 10 15 7 18 -3 3 -9 -2 -12 -12z"/>
<path d="M3552 2080 c0 -14 2 -19 5 -12 2 6 2 18 0 25 -3 6 -5 1 -5 -13z"/>
<path d="M3781 2069 c-29 -16 -48 -29 -41 -29 14 0 100 48 100 55 0 6 4 8 -59
-26z"/>
<path d="M3580 2061 c0 -10 29 -36 34 -30 1 2 -6 12 -16 22 -10 9 -18 13 -18
8z"/>
<path d="M5013 2058 c-22 -29 -24 -41 -3 -20 12 13 20 25 17 28 -2 2 -9 -1
-14 -8z"/>
<path d="M3668 2023 c7 -3 16 -2 19 1 4 3 -2 6 -13 5 -11 0 -14 -3 -6 -6z"/>
<path d="M4965 1980 c3 -5 8 -10 11 -10 2 0 4 5 4 10 0 6 -5 10 -11 10 -5 0
-7 -4 -4 -10z"/>
<path d="M5261 1974 c0 -11 3 -14 6 -6 3 7 2 16 -1 19 -3 4 -6 -2 -5 -13z"/>
<path d="M4940 1948 c-29 -44 -32 -53 -6 -23 22 26 32 45 23 45 -1 0 -9 -10
-17 -22z"/>
<path d="M5226 1935 c4 -8 7 -15 9 -15 2 0 5 7 9 15 3 9 0 15 -9 15 -9 0 -12
-6 -9 -15z"/>
<path d="M5130 1886 c0 -2 7 -9 15 -16 13 -11 14 -10 9 4 -5 14 -24 23 -24 12z"/>
<path d="M4855 1840 c-10 -11 -16 -22 -13 -25 3 -3 13 6 22 20 20 30 16 32 -9
5z"/>
<path d="M4816 1793 c-6 -14 -5 -15 5 -6 7 7 10 15 7 18 -3 3 -9 -2 -12 -12z"/>
<path d="M4440 1633 c-34 -26 -58 -49 -52 -51 20 -6 122 61 122 80 0 10 -1 18
-3 18 -2 0 -32 -21 -67 -47z"/>
<path d="M4334 1555 c-22 -19 -24 -23 -9 -18 24 8 49 32 42 39 -2 3 -18 -6
-33 -21z"/>
<path d="M4544 1528 l-19 -23 25 20 c14 11 27 21 29 22 2 2 0 3 -6 3 -5 0 -18
-10 -29 -22z"/>
<path d="M2110 1276 c0 -2 7 -6 15 -10 8 -3 15 -1 15 4 0 6 -7 10 -15 10 -8 0
-15 -2 -15 -4z"/>
<path d="M2182 1254 c2 -9 13 -20 25 -25 21 -7 22 -6 11 11 -17 26 -40 35 -36
14z"/>
<path d="M2240 1216 c0 -2 7 -7 16 -10 8 -3 12 -2 9 4 -6 10 -25 14 -25 6z"/>
<path d="M2280 1196 c0 -2 9 -6 20 -9 11 -3 18 -1 14 4 -5 9 -34 13 -34 5z"/>
<path d="M2718 1063 c7 -3 16 -2 19 1 4 3 -2 6 -13 5 -11 0 -14 -3 -6 -6z"/>
<path d="M2427 1049 c7 -7 15 -10 18 -7 3 3 -2 9 -12 12 -14 6 -15 5 -6 -5z"/>
<path d="M2778 1053 c6 -2 18 -2 25 0 6 3 1 5 -13 5 -14 0 -19 -2 -12 -5z"/>
<path d="M2848 1043 c6 -2 18 -2 25 0 6 3 1 5 -13 5 -14 0 -19 -2 -12 -5z"/>
<path d="M2968 1033 c6 -2 18 -2 25 0 6 3 1 5 -13 5 -14 0 -19 -2 -12 -5z"/>
<path d="M3298 1033 c7 -3 16 -2 19 1 4 3 -2 6 -13 5 -11 0 -14 -3 -6 -6z"/>
<path d="M4018 963 c7 -3 16 -2 19 1 4 3 -2 6 -13 5 -11 0 -14 -3 -6 -6z"/>
<path d="M3798 903 c7 -3 16 -2 19 1 4 3 -2 6 -13 5 -11 0 -14 -3 -6 -6z"/>
<path d="M2958 883 c6 -2 18 -2 25 0 6 3 1 5 -13 5 -14 0 -19 -2 -12 -5z"/>
<path d="M3698 883 c7 -3 16 -2 19 1 4 3 -2 6 -13 5 -11 0 -14 -3 -6 -6z"/>
<path d="M3098 863 c7 -3 16 -2 19 1 4 3 -2 6 -13 5 -11 0 -14 -3 -6 -6z"/>
<path d="M3553 863 c9 -2 23 -2 30 0 6 3 -1 5 -18 5 -16 0 -22 -2 -12 -5z"/>
</g>
</svg>
